STARTFONT 2.1
FONT -Adobe-ITC Souvenir-Demi-I-Normal--17-120-100-100-P-98-ISO8859-1
SIZE 12 100 100
FONTBOUNDINGBOX 23 20 -2 -4

STARTPROPERTIES 30
FOUNDRY "Adobe"
FAMILY_NAME "ITC Souvenir"
WEIGHT_NAME "Demi"
SLANT "I"
SETWIDTH_NAME "Normal"
ADD_STYLE_NAME ""
PIXEL_SIZE 17
POINT_SIZE 120
RESOLUTION_X 100
RESOLUTION_Y 100
SPACING "P"
AVERAGE_WIDTH 98
CHARSET_REGISTRY "ISO8859"
CHARSET_ENCODING "1"
CAP_HEIGHT 12
X_HEIGHT 8
FACE_NAME "ITC Souvenir Demi Italic"
COPYRIGHT "Copyright (c) 1984, 1987 Adobe Systems Incorporated. All Rights Reserved. Copyright (c) 1988, 1991 Digital Equipment Corporation. All Rights Reserved."
NOTICE "ITC Souvenir is a registered trademark of International Typeface Corporation.  "
_DEC_DEVICE_FONTNAMES "PS=Souvenir-DemiItalic"
_DEC_PRODUCTINFO "DECwindows Fonts V2.2, 07-Nov-1991"
RELATIVE_SETWIDTH 50
RELATIVE_WEIGHT 60
CHARSET_COLLECTIONS "ASCII ISO8859-1 ADOBE-STANDARD"
FULL_NAME "ITC Souvenir Demi Italic"
WEIGHT 10
QUAD_WIDTH 10
DEFAULT_CHAR 32
FONT_DESCENT 4
FONT_ASCENT 14
ENDPROPERTIES

CHARS 191

STARTCHAR space
ENCODING 32
SWIDTH 340 0
DWIDTH 5 0
BBX 1 1 0 0
BITMAP
00
ENDCHAR

STARTCHAR exclam
ENCODING 33
SWIDTH 380 0
DWIDTH 6 0
BBX 5 12 1 0
BITMAP
30
78
70
70
70
60
60
60
00
60
E0
40
ENDCHAR

STARTCHAR quotedbl
ENCODING 34
SWIDTH 580 0
DWIDTH 9 0
BBX 6 5 3 7
BITMAP
CC
CC
CC
88
88
ENDCHAR

STARTCHAR numbersign
ENCODING 35
SWIDTH 660 0
DWIDTH 10 0
BBX 8 12 2 0
BITMAP
12
12
12
7F
7F
24
24
FE
FE
48
48
48
ENDCHAR

STARTCHAR dollar
ENCODING 36
SWIDTH 680 0
DWIDTH 11 0
BBX 10 15 1 -2
BITMAP
0200
0200
0F80
38C0
30C0
7000
3C00
3F80
0780
41C0
C180
E380
7E00
0800
0800
ENDCHAR

STARTCHAR percent
ENCODING 37
SWIDTH 900 0
DWIDTH 14 0
BBX 12 12 1 0
BITMAP
3820
6C40
CC80
CC80
D900
7200
04E0
09B0
1330
1330
2360
41C0
ENDCHAR

STARTCHAR ampersand
ENCODING 38
SWIDTH 880 0
DWIDTH 14 0
BBX 13 12 1 0
BITMAP
0F80
1CC0
18C0
1980
0F00
1E78
3E30
7760
E3C0
C1C0
E3F8
7C70
ENDCHAR

STARTCHAR quoteright
ENCODING 39
SWIDTH 320 0
DWIDTH 5 0
BBX 3 5 2 7
BITMAP
60
E0
60
40
80
ENDCHAR

STARTCHAR parenleft
ENCODING 40
SWIDTH 360 0
DWIDTH 6 0
BBX 6 15 1 -3
BITMAP
0C
18
30
70
60
60
E0
C0
C0
C0
C0
C0
60
60
20
ENDCHAR

STARTCHAR parenright
ENCODING 41
SWIDTH 360 0
DWIDTH 6 0
BBX 6 15 0 -3
BITMAP
10
18
18
0C
0C
0C
0C
0C
1C
18
18
38
30
60
C0
ENDCHAR

STARTCHAR asterisk
ENCODING 42
SWIDTH 680 0
DWIDTH 11 0
BBX 7 6 3 6
BITMAP
10
54
FE
30
FC
48
ENDCHAR

STARTCHAR plus
ENCODING 43
SWIDTH 660 0
DWIDTH 11 0
BBX 8 8 2 1
BITMAP
18
18
18
FF
FF
18
18
18
ENDCHAR

STARTCHAR comma
ENCODING 44
SWIDTH 340 0
DWIDTH 5 0
BBX 3 5 1 -2
BITMAP
60
E0
60
40
80
ENDCHAR

STARTCHAR minus
ENCODING 45
SWIDTH 660 0
DWIDTH 11 0
BBX 8 2 2 4
BITMAP
FF
FF
ENDCHAR

STARTCHAR period
ENCODING 46
SWIDTH 340 0
DWIDTH 5 0
BBX 3 3 1 0
BITMAP
60
E0
40
ENDCHAR

STARTCHAR slash
ENCODING 47
SWIDTH 420 0
DWIDTH 6 0
BBX 9 15 -1 -3
BITMAP
0180
0100
0300
0200
0600
0400
0C00
0800
1800
1000
3000
2000
6000
4000
C000
ENDCHAR

STARTCHAR zero
ENCODING 48
SWIDTH 680 0
DWIDTH 11 0
BBX 10 12 1 0
BITMAP
0F00
3980
31C0
71C0
71C0
E1C0
E1C0
E380
E380
E300
6700
3C00
ENDCHAR

STARTCHAR one
ENCODING 49
SWIDTH 680 0
DWIDTH 11 0
BBX 8 12 2 0
BITMAP
07
1E
7E
0E
1C
1C
1C
1C
3C
38
38
FE
ENDCHAR

STARTCHAR two
ENCODING 50
SWIDTH 680 0
DWIDTH 11 0
BBX 10 12 1 0
BITMAP
0F80
39C0
31C0
71C0
2380
0700
0E00
1C00
3800
7180
FF00
FF00
ENDCHAR

STARTCHAR three
ENCODING 51
SWIDTH 680 0
DWIDTH 11 0
BBX 10 12 1 0
BITMAP
0F80
39C0
31C0
31C0
0380
1E00
0700
0380
4380
C380
E700
7E00
ENDCHAR

STARTCHAR four
ENCODING 52
SWIDTH 680 0
DWIDTH 11 0
BBX 9 12 1 0
BITMAP
0180
0780
0B80
1300
2700
4700
4700
8E00
FF80
0E00
0E00
1F00
ENDCHAR

STARTCHAR five
ENCODING 53
SWIDTH 680 0
DWIDTH 11 0
BBX 9 12 2 0
BITMAP
3F80
3F00
2000
2000
6E00
7F00
4300
0380
4300
C700
EE00
7800
ENDCHAR

STARTCHAR six
ENCODING 54
SWIDTH 680 0
DWIDTH 11 0
BBX 9 12 1 0
BITMAP
0780
1C00
3800
7000
6000
EF00
F380
E380
E380
E300
E700
7C00
ENDCHAR

STARTCHAR seven
ENCODING 55
SWIDTH 680 0
DWIDTH 11 0
BBX 8 12 2 0
BITMAP
FF
FF
83
06
0C
0C
18
38
70
70
E0
E0
ENDCHAR

STARTCHAR eight
ENCODING 56
SWIDTH 680 0
DWIDTH 11 0
BBX 10 12 1 0
BITMAP
0F80
38C0
30C0
70C0
3D80
3F00
3F80
67C0
C180
C180
E300
7E00
ENDCHAR

STARTCHAR nine
ENCODING 57
SWIDTH 680 0
DWIDTH 11 0
BBX 9 12 2 0
BITMAP
1F00
7380
6380
E380
E380
E780
7B80
0300
0700
0E00
1C00
F000
ENDCHAR

STARTCHAR colon
ENCODING 58
SWIDTH 320 0
DWIDTH 5 0
BBX 4 7 1 0
BITMAP
30
70
20
00
60
E0
40
ENDCHAR

STARTCHAR semicolon
ENCODING 59
SWIDTH 340 0
DWIDTH 5 0
BBX 4 9 1 -2
BITMAP
30
70
20
00
60
E0
60
40
80
ENDCHAR

STARTCHAR less
ENCODING 60
SWIDTH 660 0
DWIDTH 11 0
BBX 9 10 2 0
BITMAP
0080
0380
0E00
3800
E000
E000
3000
1C00
0600
0300
ENDCHAR

STARTCHAR equal
ENCODING 61
SWIDTH 660 0
DWIDTH 10 0
BBX 8 5 1 2
BITMAP
FF
FF
00
FF
FF
ENDCHAR

STARTCHAR greater
ENCODING 62
SWIDTH 660 0
DWIDTH 10 0
BBX 9 10 1 0
BITMAP
4000
7000
1800
0E00
0380
0380
0E00
3800
E000
8000
ENDCHAR

STARTCHAR question
ENCODING 63
SWIDTH 520 0
DWIDTH 8 0
BBX 8 12 1 0
BITMAP
7E
C7
C7
07
0E
3C
70
40
00
60
E0
40
ENDCHAR

STARTCHAR at
ENCODING 64
SWIDTH 860 0
DWIDTH 14 0
BBX 12 12 2 0
BITMAP
0F00
30C0
4020
4EE0
9990
B990
B320
B360
5D80
4020
30C0
0F00
ENDCHAR

STARTCHAR A
ENCODING 65
SWIDTH 760 0
DWIDTH 12 0
BBX 13 12 -1 0
BITMAP
0180
0380
07C0
05C0
0CE0
18E0
10E0
3FE0
2070
6070
4070
E0F8
ENDCHAR

STARTCHAR B
ENCODING 66
SWIDTH 780 0
DWIDTH 12 0
BBX 12 12 0 0
BITMAP
3FE0
1CF0
1C70
1C70
38E0
3B80
3EE0
3870
7070
70E0
71E0
FF80
ENDCHAR

STARTCHAR C
ENCODING 67
SWIDTH 780 0
DWIDTH 12 0
BBX 12 12 1 0
BITMAP
07D0
1EF0
3860
7020
7020
E000
E000
E000
E000
7020
78C0
1F80
ENDCHAR

STARTCHAR D
ENCODING 68
SWIDTH 860 0
DWIDTH 14 0
BBX 14 12 0 0
BITMAP
3FE0
1C78
1C38
1C1C
381C
381C
381C
3838
7038
7070
71E0
FF80
ENDCHAR

STARTCHAR E
ENCODING 69
SWIDTH 700 0
DWIDTH 11 0
BBX 11 12 0 0
BITMAP
3FE0
1C60
1C20
1C00
3880
3F80
3880
3800
7000
7040
70C0
FFC0
ENDCHAR

STARTCHAR F
ENCODING 70
SWIDTH 640 0
DWIDTH 10 0
BBX 11 12 0 0
BITMAP
3FE0
1C60
1C20
1C00
3880
3F80
3880
3800
7000
7000
7000
F800
ENDCHAR

STARTCHAR G
ENCODING 71
SWIDTH 820 0
DWIDTH 13 0
BBX 12 12 1 0
BITMAP
07D0
1EF0
3860
7020
7020
E000
E3F0
E0E0
E0E0
71C0
79C0
1F80
ENDCHAR

STARTCHAR H
ENCODING 72
SWIDTH 880 0
DWIDTH 14 0
BBX 15 12 0 0
BITMAP
3E3E
1C1C
1C1C
1C1C
3838
3FF8
3838
3838
7070
7070
7070
F8F8
ENDCHAR

STARTCHAR I
ENCODING 73
SWIDTH 400 0
DWIDTH 6 0
BBX 7 12 0 0
BITMAP
3E
1C
1C
1C
38
38
38
38
70
70
70
F8
ENDCHAR

STARTCHAR J
ENCODING 74
SWIDTH 600 0
DWIDTH 10 0
BBX 10 12 0 0
BITMAP
07C0
0380
0380
0380
0700
0700
0700
6700
E700
C600
CE00
7C00
ENDCHAR

STARTCHAR K
ENCODING 75
SWIDTH 780 0
DWIDTH 12 0
BBX 13 12 0 0
BITMAP
3E78
1C30
1C60
1CC0
3980
3B80
3F80
39C0
71C0
70E0
70E0
F9F0
ENDCHAR

STARTCHAR L
ENCODING 76
SWIDTH 660 0
DWIDTH 10 0
BBX 10 12 0 0
BITMAP
3E00
1C00
1C00
1C00
3800
3800
3800
3800
7000
7040
70C0
FFC0
ENDCHAR

STARTCHAR M
ENCODING 77
SWIDTH 960 0
DWIDTH 15 0
BBX 16 12 0 0
BITMAP
3C1F
1C1E
1E3E
3E2E
2E5C
2E5C
279C
679C
4738
4238
4038
E07C
ENDCHAR

STARTCHAR N
ENCODING 78
SWIDTH 800 0
DWIDTH 12 0
BBX 13 12 0 0
BITMAP
3C38
1C10
1E10
3E30
2720
2720
23A0
23A0
61E0
41C0
40C0
E0C0
ENDCHAR

STARTCHAR O
ENCODING 79
SWIDTH 860 0
DWIDTH 14 0
BBX 13 12 1 0
BITMAP
07C0
1EF0
3870
7038
7038
E038
E038
E070
E070
70E0
7BC0
1F00
ENDCHAR

STARTCHAR P
ENCODING 80
SWIDTH 720 0
DWIDTH 12 0
BBX 12 12 0 0
BITMAP
3FE0
1CF0
1C70
1C70
38F0
39E0
3F80
3800
7000
7000
7000
F800
ENDCHAR

STARTCHAR Q
ENCODING 81
SWIDTH 880 0
DWIDTH 14 0
BBX 13 14 1 -2
BITMAP
07C0
1EF0
3870
7038
7038
E038
E038
E070
E470
74E0
77C0
1F00
03E0
01C0
ENDCHAR

STARTCHAR R
ENCODING 82
SWIDTH 780 0
DWIDTH 12 0
BBX 12 12 0 0
BITMAP
3FE0
1C70
1C70
1C70
38E0
3BC0
3F80
39C0
71C0
70E0
70E0
F9E0
ENDCHAR

STARTCHAR S
ENCODING 83
SWIDTH 680 0
DWIDTH 11 0
BBX 10 12 0 0
BITMAP
0FC0
38C0
7040
7040
7C00
3F00
1F80
07C0
41C0
C1C0
E380
7E00
ENDCHAR

STARTCHAR T
ENCODING 84
SWIDTH 660 0
DWIDTH 10 0
BBX 11 12 1 0
BITMAP
FFE0
CE60
8E20
0E00
1C00
1C00
1C00
1C00
3800
3800
3800
7C00
ENDCHAR

STARTCHAR U
ENCODING 85
SWIDTH 800 0
DWIDTH 13 0
BBX 13 12 1 0
BITMAP
7C38
3810
3830
3820
7020
7020
7060
E040
E040
E0C0
7180
3E00
ENDCHAR

STARTCHAR V
ENCODING 86
SWIDTH 720 0
DWIDTH 11 0
BBX 13 12 0 0
BITMAP
F838
7010
7030
7020
3860
3840
38C0
3980
1D00
1F00
0E00
0C00
ENDCHAR

STARTCHAR W
ENCODING 87
SWIDTH 1020 0
DWIDTH 16 0
BBX 16 12 1 0
BITMAP
FBE7
71C2
71C6
71C4
73CC
73C8
77D8
75D0
3CF0
38E0
30C0
30C0
ENDCHAR

STARTCHAR X
ENCODING 88
SWIDTH 740 0
DWIDTH 12 0
BBX 13 12 -1 0
BITMAP
3E78
1C30
1C60
0EC0
0F80
0700
0780
0FC0
19C0
30E0
60E0
F1F0
ENDCHAR

STARTCHAR Y
ENCODING 89
SWIDTH 740 0
DWIDTH 12 0
BBX 13 12 1 0
BITMAP
F878
7030
7060
38C0
3980
1F00
1E00
0E00
0E00
1C00
1C00
3E00
ENDCHAR

STARTCHAR Z
ENCODING 90
SWIDTH 620 0
DWIDTH 10 0
BBX 12 12 0 0
BITMAP
3FF0
30E0
61C0
03C0
0380
0700
0E00
1C00
3C00
3860
70C0
FFC0
ENDCHAR

STARTCHAR bracketleft
ENCODING 91
SWIDTH 340 0
DWIDTH 5 0
BBX 6 15 0 -3
BITMAP
3C
30
30
30
60
60
60
60
60
60
60
C0
C0
C0
F0
ENDCHAR

STARTCHAR backslash
ENCODING 92
SWIDTH 660 0
DWIDTH 10 0
BBX 6 12 3 0
BITMAP
80
80
40
40
20
20
10
10
08
08
04
04
ENDCHAR

STARTCHAR bracketright
ENCODING 93
SWIDTH 340 0
DWIDTH 5 0
BBX 6 15 0 -3
BITMAP
3C
0C
0C
0C
18
18
18
18
18
18
18
30
30
30
F0
ENDCHAR

STARTCHAR asciicircum
ENCODING 94
SWIDTH 660 0
DWIDTH 11 0
BBX 10 9 1 3
BITMAP
0C00
0C00
1E00
1200
3300
2100
6180
4080
C0C0
ENDCHAR

STARTCHAR underscore
ENCODING 95
SWIDTH 500 0
DWIDTH 8 0
BBX 8 2 0 -2
BITMAP
FF
FF
ENDCHAR

STARTCHAR quoteleft
ENCODING 96
SWIDTH 320 0
DWIDTH 5 0
BBX 3 5 2 7
BITMAP
20
40
C0
E0
C0
ENDCHAR

STARTCHAR a
ENCODING 97
SWIDTH 640 0
DWIDTH 10 0
BBX 10 8 0 0
BITMAP
0EC0
3BC0
7180
6180
E180
6380
77C0
3B00
ENDCHAR

STARTCHAR b
ENCODING 98
SWIDTH 640 0
DWIDTH 10 0
BBX 10 12 0 0
BITMAP
1800
7800
3000
3000
3700
7B80
7180
61C0
6180
E380
F700
DC00
ENDCHAR

STARTCHAR c
ENCODING 99
SWIDTH 540 0
DWIDTH 8 0
BBX 8 8 0 0
BITMAP
0E
3B
73
60
E0
63
76
3C
ENDCHAR

STARTCHAR d
ENCODING 100
SWIDTH 680 0
DWIDTH 11 0
BBX 11 12 0 0
BITMAP
0060
01E0
00C0
00C0
0EC0
3BC0
7180
6180
E180
6380
77C0
3B00
ENDCHAR

STARTCHAR e
ENCODING 101
SWIDTH 580 0
DWIDTH 9 0
BBX 9 8 0 0
BITMAP
0F00
3B80
7180
6700
F800
6100
7700
3C00
ENDCHAR

STARTCHAR f
ENCODING 102
SWIDTH 420 0
DWIDTH 7 0
BBX 12 15 -2 -3
BITMAP
01E0
0370
0320
0300
0700
1F80
0600
0600
0E00
0E00
0C00
0C00
4C00
E800
7000
ENDCHAR

STARTCHAR g
ENCODING 103
SWIDTH 600 0
DWIDTH 10 0
BBX 11 11 -1 -3
BITMAP
07E0
1DC0
38C0
30E0
70C0
31C0
3B00
1F80
4180
E380
7E00
ENDCHAR

STARTCHAR h
ENCODING 104
SWIDTH 680 0
DWIDTH 10 0
BBX 9 12 1 0
BITMAP
1800
7800
3000
3000
3700
7B80
7380
6300
6300
E700
C780
C600
ENDCHAR

STARTCHAR i
ENCODING 105
SWIDTH 340 0
DWIDTH 5 0
BBX 5 12 1 0
BITMAP
18
38
10
00
30
F0
60
60
60
E0
F0
C0
ENDCHAR

STARTCHAR j
ENCODING 106
SWIDTH 340 0
DWIDTH 5 0
BBX 8 15 -2 -3
BITMAP
03
07
02
00
06
1E
0C
0C
0C
1C
18
18
58
F8
70
ENDCHAR

STARTCHAR k
ENCODING 107
SWIDTH 600 0
DWIDTH 10 0
BBX 9 12 1 0
BITMAP
1800
7800
3000
3000
3180
7780
7D80
7C00
6E00
E600
C780
C300
ENDCHAR

STARTCHAR l
ENCODING 108
SWIDTH 360 0
DWIDTH 6 0
BBX 5 12 1 0
BITMAP
18
78
30
30
70
70
60
60
60
E0
F0
C0
ENDCHAR

STARTCHAR m
ENCODING 109
SWIDTH 980 0
DWIDTH 15 0
BBX 14 8 1 0
BITMAP
3738
FBDC
739C
6318
6318
E738
C63C
C630
ENDCHAR

STARTCHAR n
ENCODING 110
SWIDTH 680 0
DWIDTH 11 0
BBX 9 8 1 0
BITMAP
3700
FB80
7380
6300
6300
E700
C780
C600
ENDCHAR

STARTCHAR o
ENCODING 111
SWIDTH 640 0
DWIDTH 10 0
BBX 10 8 0 0
BITMAP
0F00
3B80
7180
61C0
E180
6380
7700
3C00
ENDCHAR

STARTCHAR p
ENCODING 112
SWIDTH 660 0
DWIDTH 10 0
BBX 11 11 -1 -3
BITMAP
1B80
7DC0
38C0
38E0
30C0
71C0
7380
6600
6000
E000
E000
ENDCHAR

STARTCHAR q
ENCODING 113
SWIDTH 640 0
DWIDTH 10 0
BBX 10 11 0 -3
BITMAP
0EC0
3BC0
7180
6180
E380
6300
7700
3E00
0600
0E00
0E00
ENDCHAR

STARTCHAR r
ENCODING 114
SWIDTH 460 0
DWIDTH 7 0
BBX 7 8 1 0
BITMAP
36
FE
76
60
60
E0
C0
C0
ENDCHAR

STARTCHAR s
ENCODING 115
SWIDTH 520 0
DWIDTH 8 0
BBX 8 8 0 0
BITMAP
1E
73
61
7C
3E
86
CE
78
ENDCHAR

STARTCHAR t
ENCODING 116
SWIDTH 420 0
DWIDTH 7 0
BBX 6 10 1 0
BITMAP
10
30
30
FC
70
60
60
E0
F8
E0
ENDCHAR

STARTCHAR u
ENCODING 117
SWIDTH 680 0
DWIDTH 10 0
BBX 9 8 0 0
BITMAP
3180
F180
7380
6300
6300
E700
EF80
7600
ENDCHAR

STARTCHAR v
ENCODING 118
SWIDTH 580 0
DWIDTH 9 0
BBX 8 8 0 0
BITMAP
33
F7
73
61
63
62
76
38
ENDCHAR

STARTCHAR w
ENCODING 119
SWIDTH 840 0
DWIDTH 13 0
BBX 12 8 0 0
BITMAP
3330
F370
7330
6710
6630
6620
7F60
3380
ENDCHAR

STARTCHAR x
ENCODING 120
SWIDTH 580 0
DWIDTH 9 0
BBX 9 8 0 0
BITMAP
3180
7380
3E00
1C00
1C00
3E00
E780
C700
ENDCHAR

STARTCHAR y
ENCODING 121
SWIDTH 560 0
DWIDTH 9 0
BBX 9 11 -1 -3
BITMAP
1980
7B80
3980
3080
3180
3100
3B00
1E00
4600
EC00
7000
ENDCHAR

STARTCHAR z
ENCODING 122
SWIDTH 500 0
DWIDTH 8 0
BBX 7 8 1 0
BITMAP
7E
CE
9C
38
30
72
E6
FC
ENDCHAR

STARTCHAR braceleft
ENCODING 123
SWIDTH 340 0
DWIDTH 5 0
BBX 6 15 0 -3
BITMAP
0C
18
30
30
30
30
60
C0
60
60
C0
C0
C0
C0
60
ENDCHAR

STARTCHAR bar
ENCODING 124
SWIDTH 660 0
DWIDTH 10 0
BBX 1 12 5 0
BITMAP
80
80
80
80
80
80
80
80
80
80
80
80
ENDCHAR

STARTCHAR braceright
ENCODING 125
SWIDTH 340 0
DWIDTH 5 0
BBX 6 15 0 -3
BITMAP
18
0C
0C
0C
0C
18
18
0C
18
30
30
30
30
60
C0
ENDCHAR

STARTCHAR asciitilde
ENCODING 126
SWIDTH 660 0
DWIDTH 11 0
BBX 10 3 1 3
BITMAP
3880
FFC0
4700
ENDCHAR

STARTCHAR space
ENCODING 160
SWIDTH 340 0
DWIDTH 5 0
BBX 1 1 0 0
BITMAP
00
ENDCHAR

STARTCHAR exclamdown
ENCODING 161
SWIDTH 380 0
DWIDTH 6 0
BBX 5 12 0 -4
BITMAP
10
38
30
00
30
30
30
70
70
70
F0
60
ENDCHAR

STARTCHAR cent
ENCODING 162
SWIDTH 660 0
DWIDTH 11 0
BBX 8 12 2 0
BITMAP
04
04
0E
3B
73
60
E0
63
76
3C
10
10
ENDCHAR

STARTCHAR sterling
ENCODING 163
SWIDTH 660 0
DWIDTH 11 0
BBX 10 12 0 0
BITMAP
0780
0CC0
1CC0
1C00
1C00
1800
7F00
1800
1800
3040
7EC0
CF80
ENDCHAR

STARTCHAR currency
ENCODING 164
SWIDTH 680 0
DWIDTH 11 0
BBX 8 8 2 2
BITMAP
BD
66
C3
81
81
C3
66
BD
ENDCHAR

STARTCHAR yen
ENCODING 165
SWIDTH 680 0
DWIDTH 11 0
BBX 11 12 2 0
BITMAP
F9E0
70C0
7080
7100
3A00
FFC0
3C00
FF80
1800
3800
3800
7C00
ENDCHAR

STARTCHAR brokenbar
ENCODING 166
SWIDTH 660 0
DWIDTH 10 0
BBX 1 12 5 0
BITMAP
80
80
80
80
80
00
00
80
80
80
80
80
ENDCHAR

STARTCHAR section
ENCODING 167
SWIDTH 680 0
DWIDTH 11 0
BBX 10 16 0 -4
BITMAP
0780
1CC0
1840
3840
1C00
3F00
67C0
61C0
70C0
3CC0
1F80
0700
8180
C180
6300
7E00
ENDCHAR

STARTCHAR dieresis
ENCODING 168
SWIDTH 520 0
DWIDTH 8 0
BBX 6 2 3 9
BITMAP
CC
CC
ENDCHAR

STARTCHAR copyright
ENCODING 169
SWIDTH 840 0
DWIDTH 13 0
BBX 12 12 1 0
BITMAP
0F00
30C0
4720
48A0
9090
9010
9010
9090
4920
4620
30C0
0F00
ENDCHAR

STARTCHAR ordfeminine
ENCODING 170
SWIDTH 440 0
DWIDTH 7 0
BBX 6 7 2 5
BITMAP
3C
6C
CC
D8
6C
00
F8
ENDCHAR

STARTCHAR guillemotleft
ENCODING 171
SWIDTH 460 0
DWIDTH 7 0
BBX 6 6 1 1
BITMAP
24
6C
D8
D8
48
48
ENDCHAR

STARTCHAR logicalnot
ENCODING 172
SWIDTH 660 0
DWIDTH 11 0
BBX 9 5 1 2
BITMAP
FF80
FF80
0180
0180
0180
ENDCHAR

STARTCHAR hyphen
ENCODING 173
SWIDTH 300 0
DWIDTH 5 0
BBX 4 2 1 4
BITMAP
F0
F0
ENDCHAR

STARTCHAR registered
ENCODING 174
SWIDTH 840 0
DWIDTH 13 0
BBX 12 12 1 0
BITMAP
0F00
30C0
5F20
48A0
8890
8B10
8E10
8910
48A0
5CE0
30C0
0F00
ENDCHAR

STARTCHAR macron
ENCODING 175
SWIDTH 480 0
DWIDTH 8 0
BBX 5 1 3 9
BITMAP
F8
ENDCHAR

STARTCHAR degree
ENCODING 176
SWIDTH 400 0
DWIDTH 6 0
BBX 5 5 2 7
BITMAP
70
88
88
88
70
ENDCHAR

STARTCHAR plusminus
ENCODING 177
SWIDTH 660 0
DWIDTH 11 0
BBX 8 9 2 0
BITMAP
18
18
FF
FF
18
18
00
FF
FF
ENDCHAR

STARTCHAR twosuperior
ENCODING 178
SWIDTH 408 0
DWIDTH 7 0
BBX 7 7 1 5
BITMAP
3C
66
0C
18
30
64
FC
ENDCHAR

STARTCHAR threesuperior
ENCODING 179
SWIDTH 408 0
DWIDTH 7 0
BBX 7 7 1 5
BITMAP
3C
66
0C
38
0C
CC
78
ENDCHAR

STARTCHAR acute
ENCODING 180
SWIDTH 320 0
DWIDTH 5 0
BBX 4 3 2 9
BITMAP
70
60
C0
ENDCHAR

STARTCHAR mu
ENCODING 181
SWIDTH 680 0
DWIDTH 11 0
BBX 10 11 0 -3
BITMAP
18C0
78C0
39C0
3180
3180
7380
77C0
7B00
4000
C000
C000
ENDCHAR

STARTCHAR paragraph
ENCODING 182
SWIDTH 660 0
DWIDTH 11 0
BBX 12 15 1 -3
BITMAP
3FF0
6140
C340
C240
C2C0
6280
3680
0C80
0580
0500
0D00
0900
0B00
0A00
0A00
ENDCHAR

STARTCHAR periodcentered
ENCODING 183
SWIDTH 340 0
DWIDTH 5 0
BBX 3 3 1 3
BITMAP
40
E0
40
ENDCHAR

STARTCHAR cedilla
ENCODING 184
SWIDTH 540 0
DWIDTH 9 0
BBX 4 4 2 -4
BITMAP
40
70
30
E0
ENDCHAR

STARTCHAR onesuperior
ENCODING 185
SWIDTH 408 0
DWIDTH 6 0
BBX 5 7 2 5
BITMAP
18
70
30
30
60
60
F0
ENDCHAR

STARTCHAR ordmasculine
ENCODING 186
SWIDTH 440 0
DWIDTH 7 0
BBX 6 7 2 5
BITMAP
38
6C
CC
D8
70
00
F8
ENDCHAR

STARTCHAR guillemotright
ENCODING 187
SWIDTH 460 0
DWIDTH 7 0
BBX 6 6 0 1
BITMAP
48
48
6C
6C
D8
90
ENDCHAR

STARTCHAR onequarter
ENCODING 188
SWIDTH 1020 0
DWIDTH 16 0
BBX 13 12 2 0
BITMAP
1810
7020
3040
3040
6080
6118
F238
0458
0890
09F8
1030
2078
ENDCHAR

STARTCHAR onehalf
ENCODING 189
SWIDTH 1020 0
DWIDTH 16 0
BBX 14 12 2 0
BITMAP
1820
7040
3080
3080
6100
6278
F4CC
0818
1030
1060
20C8
41F8
ENDCHAR

STARTCHAR threequarters
ENCODING 190
SWIDTH 1020 0
DWIDTH 16 0
BBX 14 12 1 0
BITMAP
3C08
6610
0C20
3820
0C40
CC8C
791C
022C
0448
04FC
0818
103C
ENDCHAR

STARTCHAR questiondown
ENCODING 191
SWIDTH 520 0
DWIDTH 8 0
BBX 8 12 0 -4
BITMAP
02
07
06
00
02
0E
3C
70
E0
E3
E3
7E
ENDCHAR

STARTCHAR Agrave
ENCODING 192
SWIDTH 760 0
DWIDTH 12 0
BBX 13 16 -1 0
BITMAP
0380
0180
00C0
0000
0180
0380
07C0
05C0
0CE0
18E0
10E0
3FE0
2070
6070
4070
E0F8
ENDCHAR

STARTCHAR Aacute
ENCODING 193
SWIDTH 760 0
DWIDTH 12 0
BBX 13 16 -1 0
BITMAP
01C0
0180
0300
0000
0180
0380
07C0
05C0
0CE0
18E0
10E0
3FE0
2070
6070
4070
E0F8
ENDCHAR

STARTCHAR Acircumflex
ENCODING 194
SWIDTH 760 0
DWIDTH 12 0
BBX 13 16 -1 0
BITMAP
0100
0380
0440
0000
0180
0380
07C0
05C0
0CE0
18E0
10E0
3FE0
2070
6070
4070
E0F8
ENDCHAR

STARTCHAR Atilde
ENCODING 195
SWIDTH 760 0
DWIDTH 12 0
BBX 13 15 -1 0
BITMAP
03A0
05C0
0000
0180
0380
07C0
05C0
0CE0
18E0
10E0
3FE0
2070
6070
4070
E0F8
ENDCHAR

STARTCHAR Adieresis
ENCODING 196
SWIDTH 760 0
DWIDTH 12 0
BBX 13 15 -1 0
BITMAP
0660
0660
0000
0180
0380
07C0
05C0
0CE0
18E0
10E0
3FE0
2070
6070
4070
E0F8
ENDCHAR

STARTCHAR Aring
ENCODING 197
SWIDTH 760 0
DWIDTH 12 0
BBX 13 16 -1 0
BITMAP
0180
0240
0240
0180
0180
0380
07C0
05C0
0CE0
18E0
10E0
3FE0
2070
6070
4070
E0F8
ENDCHAR

STARTCHAR AE
ENCODING 198
SWIDTH 1000 0
DWIDTH 16 0
BBX 17 12 -1 0
BITMAP
00FF80
01F180
037080
047000
0CE200
08FE00
18E200
3FE000
21C000
61C100
41C300
E3FF00
ENDCHAR

STARTCHAR Ccedilla
ENCODING 199
SWIDTH 780 0
DWIDTH 12 0
BBX 12 16 1 -4
BITMAP
07D0
1EF0
3860
7020
7020
E000
E000
E000
E000
7020
78C0
1F80
0400
0700
0300
0E00
ENDCHAR

STARTCHAR Egrave
ENCODING 200
SWIDTH 700 0
DWIDTH 11 0
BBX 11 16 0 0
BITMAP
0700
0300
0180
0000
3FE0
1C60
1C20
1C00
3880
3F80
3880
3800
7000
7040
70C0
FFC0
ENDCHAR

STARTCHAR Eacute
ENCODING 201
SWIDTH 700 0
DWIDTH 11 0
BBX 11 16 0 0
BITMAP
01C0
0180
0300
0000
3FE0
1C60
1C20
1C00
3880
3F80
3880
3800
7000
7040
70C0
FFC0
ENDCHAR

STARTCHAR Ecircumflex
ENCODING 202
SWIDTH 700 0
DWIDTH 11 0
BBX 11 16 0 0
BITMAP
0100
0380
0440
0000
3FE0
1C60
1C20
1C00
3880
3F80
3880
3800
7000
7040
70C0
FFC0
ENDCHAR

STARTCHAR Edieresis
ENCODING 203
SWIDTH 700 0
DWIDTH 11 0
BBX 11 15 0 0
BITMAP
0CC0
0CC0
0000
3FE0
1C60
1C20
1C00
3880
3F80
3880
3800
7000
7040
70C0
FFC0
ENDCHAR

STARTCHAR Igrave
ENCODING 204
SWIDTH 400 0
DWIDTH 6 0
BBX 7 16 0 0
BITMAP
1C
0C
06
00
3E
1C
1C
1C
38
38
38
38
70
70
70
F8
ENDCHAR

STARTCHAR Iacute
ENCODING 205
SWIDTH 400 0
DWIDTH 6 0
BBX 8 16 0 0
BITMAP
07
06
0C
00
3E
1C
1C
1C
38
38
38
38
70
70
70
F8
ENDCHAR

STARTCHAR Icircumflex
ENCODING 206
SWIDTH 400 0
DWIDTH 6 0
BBX 7 16 0 0
BITMAP
08
1C
22
00
3E
1C
1C
1C
38
38
38
38
70
70
70
F8
ENDCHAR

STARTCHAR Idieresis
ENCODING 207
SWIDTH 400 0
DWIDTH 6 0
BBX 8 15 0 0
BITMAP
33
33
00
3E
1C
1C
1C
38
38
38
38
70
70
70
F8
ENDCHAR

STARTCHAR Eth
ENCODING 208
SWIDTH 860 0
DWIDTH 14 0
BBX 14 12 0 0
BITMAP
3FE0
1C78
1C38
1C1C
381C
FE1C
381C
3838
7038
7070
71E0
FF80
ENDCHAR

STARTCHAR Ntilde
ENCODING 209
SWIDTH 800 0
DWIDTH 12 0
BBX 13 15 0 0
BITMAP
03A0
05C0
0000
3C38
1C10
1E10
3E30
2720
2720
23A0
23A0
61E0
41C0
40C0
E0C0
ENDCHAR

STARTCHAR Ograve
ENCODING 210
SWIDTH 860 0
DWIDTH 14 0
BBX 13 16 1 0
BITMAP
0380
0180
00C0
0000
07C0
1EF0
3870
7038
7038
E038
E038
E070
E070
70E0
7BC0
1F00
ENDCHAR

STARTCHAR Oacute
ENCODING 211
SWIDTH 860 0
DWIDTH 14 0
BBX 13 16 1 0
BITMAP
00E0
00C0
0180
0000
07C0
1EF0
3870
7038
7038
E038
E038
E070
E070
70E0
7BC0
1F00
ENDCHAR

STARTCHAR Ocircumflex
ENCODING 212
SWIDTH 860 0
DWIDTH 14 0
BBX 13 16 1 0
BITMAP
0100
0380
0440
0000
07C0
1EF0
3870
7038
7038
E038
E038
E070
E070
70E0
7BC0
1F00
ENDCHAR

STARTCHAR Otilde
ENCODING 213
SWIDTH 860 0
DWIDTH 14 0
BBX 13 15 1 0
BITMAP
03A0
05C0
0000
07C0
1EF0
3870
7038
7038
E038
E038
E070
E070
70E0
7BC0
1F00
ENDCHAR

STARTCHAR Odieresis
ENCODING 214
SWIDTH 860 0
DWIDTH 14 0
BBX 13 15 1 0
BITMAP
0660
0660
0000
07C0
1EF0
3870
7038
7038
E038
E038
E070
E070
70E0
7BC0
1F00
ENDCHAR

STARTCHAR multiply
ENCODING 215
SWIDTH 660 0
DWIDTH 10 0
BBX 8 7 2 1
BITMAP
C3
66
3C
18
3C
66
C3
ENDCHAR

STARTCHAR Oslash
ENCODING 216
SWIDTH 860 0
DWIDTH 14 0
BBX 13 12 1 0
BITMAP
07D8
1EF0
3870
70F8
71B8
E338
E638
EC70
F870
70E0
7BC0
DF00
ENDCHAR

STARTCHAR Ugrave
ENCODING 217
SWIDTH 800 0
DWIDTH 13 0
BBX 13 16 1 0
BITMAP
0380
0180
00C0
0000
7C38
3810
3830
3820
7020
7020
7060
E040
E040
E0C0
7180
3E00
ENDCHAR

STARTCHAR Uacute
ENCODING 218
SWIDTH 800 0
DWIDTH 13 0
BBX 13 16 1 0
BITMAP
01C0
0180
0300
0000
7C38
3810
3830
3820
7020
7020
7060
E040
E040
E0C0
7180
3E00
ENDCHAR

STARTCHAR Ucircumflex
ENCODING 219
SWIDTH 800 0
DWIDTH 13 0
BBX 13 16 1 0
BITMAP
0100
0380
0440
0000
7C38
3810
3830
3820
7020
7020
7060
E040
E040
E0C0
7180
3E00
ENDCHAR

STARTCHAR Udieresis
ENCODING 220
SWIDTH 800 0
DWIDTH 13 0
BBX 13 15 1 0
BITMAP
0660
0660
0000
7C38
3810
3830
3820
7020
7020
7060
E040
E040
E0C0
7180
3E00
ENDCHAR

STARTCHAR Yacute
ENCODING 221
SWIDTH 740 0
DWIDTH 12 0
BBX 13 16 1 0
BITMAP
01C0
0180
0300
0000
F878
7030
7060
38C0
3980
1F00
1E00
0E00
0E00
1C00
1C00
3E00
ENDCHAR

STARTCHAR Thorn
ENCODING 222
SWIDTH 720 0
DWIDTH 12 0
BBX 12 12 0 0
BITMAP
3E00
1C00
1FE0
1CF0
3C70
3870
38F0
39E0
7F80
7000
7000
F800
ENDCHAR

STARTCHAR germandbls
ENCODING 223
SWIDTH 640 0
DWIDTH 10 0
BBX 10 12 0 0
BITMAP
0F80
1CC0
18C0
38C0
3980
3300
3300
7380
7380
61C0
6180
E700
ENDCHAR

STARTCHAR agrave
ENCODING 224
SWIDTH 640 0
DWIDTH 10 0
BBX 10 12 0 0
BITMAP
0E00
0600
0300
0000
0EC0
3BC0
7180
6180
E180
6380
77C0
3B00
ENDCHAR

STARTCHAR aacute
ENCODING 225
SWIDTH 640 0
DWIDTH 10 0
BBX 10 12 0 0
BITMAP
01C0
0180
0300
0000
0EC0
3BC0
7180
6180
E180
6380
77C0
3B00
ENDCHAR

STARTCHAR acircumflex
ENCODING 226
SWIDTH 640 0
DWIDTH 10 0
BBX 10 12 0 0
BITMAP
0200
0700
0880
0000
0EC0
3BC0
7180
6180
E180
6380
77C0
3B00
ENDCHAR

STARTCHAR atilde
ENCODING 227
SWIDTH 640 0
DWIDTH 10 0
BBX 10 11 0 0
BITMAP
0740
0B80
0000
0EC0
3BC0
7180
6180
E180
6380
77C0
3B00
ENDCHAR

STARTCHAR adieresis
ENCODING 228
SWIDTH 640 0
DWIDTH 10 0
BBX 10 11 0 0
BITMAP
0CC0
0CC0
0000
0EC0
3BC0
7180
6180
E180
6380
77C0
3B00
ENDCHAR

STARTCHAR aring
ENCODING 229
SWIDTH 640 0
DWIDTH 10 0
BBX 10 13 0 0
BITMAP
0600
0900
0900
0600
0000
0EC0
3BC0
7180
6180
E180
6380
77C0
3B00
ENDCHAR

STARTCHAR ae
ENCODING 230
SWIDTH 900 0
DWIDTH 14 0
BBX 14 8 0 0
BITMAP
3C78
77DC
038C
1F38
73C0
E708
E7B8
79E0
ENDCHAR

STARTCHAR ccedilla
ENCODING 231
SWIDTH 540 0
DWIDTH 8 0
BBX 8 12 0 -4
BITMAP
0E
3B
73
60
E0
63
76
3C
20
38
18
70
ENDCHAR

STARTCHAR egrave
ENCODING 232
SWIDTH 580 0
DWIDTH 9 0
BBX 9 12 0 0
BITMAP
3800
1800
0C00
0000
0F00
3B80
7180
6700
F800
6100
7700
3C00
ENDCHAR

STARTCHAR eacute
ENCODING 233
SWIDTH 580 0
DWIDTH 9 0
BBX 9 12 0 0
BITMAP
0380
0300
0600
0000
0F00
3B80
7180
6700
F800
6100
7700
3C00
ENDCHAR

STARTCHAR ecircumflex
ENCODING 234
SWIDTH 580 0
DWIDTH 9 0
BBX 9 12 0 0
BITMAP
0400
0E00
1100
0000
0F00
3B80
7180
6700
F800
6100
7700
3C00
ENDCHAR

STARTCHAR edieresis
ENCODING 235
SWIDTH 580 0
DWIDTH 9 0
BBX 9 11 0 0
BITMAP
1980
1980
0000
0F00
3B80
7180
6700
F800
6100
7700
3C00
ENDCHAR

STARTCHAR igrave
ENCODING 236
SWIDTH 340 0
DWIDTH 5 0
BBX 4 12 1 0
BITMAP
E0
60
30
00
30
F0
60
60
60
E0
F0
C0
ENDCHAR

STARTCHAR iacute
ENCODING 237
SWIDTH 340 0
DWIDTH 5 0
BBX 6 12 1 0
BITMAP
1C
18
30
00
30
F0
60
60
60
E0
F0
C0
ENDCHAR

STARTCHAR icircumflex
ENCODING 238
SWIDTH 340 0
DWIDTH 5 0
BBX 5 12 1 0
BITMAP
20
70
88
00
30
F0
60
60
60
E0
F0
C0
ENDCHAR

STARTCHAR idieresis
ENCODING 239
SWIDTH 340 0
DWIDTH 5 0
BBX 6 11 1 0
BITMAP
CC
CC
00
30
F0
60
60
60
E0
F0
C0
ENDCHAR

STARTCHAR eth
ENCODING 240
SWIDTH 640 0
DWIDTH 10 0
BBX 10 13 0 0
BITMAP
0200
7C00
1E00
2300
0180
0F80
3BC0
71C0
61C0
E180
6380
7700
3C00
ENDCHAR

STARTCHAR ntilde
ENCODING 241
SWIDTH 680 0
DWIDTH 11 0
BBX 9 11 1 0
BITMAP
1D00
2E00
0000
3700
FB80
7380
6300
6300
E700
C780
C600
ENDCHAR

STARTCHAR ograve
ENCODING 242
SWIDTH 640 0
DWIDTH 10 0
BBX 10 12 0 0
BITMAP
1C00
0C00
0600
0000
0F00
3B80
7180
61C0
E180
6380
7700
3C00
ENDCHAR

STARTCHAR oacute
ENCODING 243
SWIDTH 640 0
DWIDTH 10 0
BBX 10 12 0 0
BITMAP
0380
0300
0600
0000
0F00
3B80
7180
61C0
E180
6380
7700
3C00
ENDCHAR

STARTCHAR ocircumflex
ENCODING 244
SWIDTH 640 0
DWIDTH 10 0
BBX 10 12 0 0
BITMAP
0400
0E00
1100
0000
0F00
3B80
7180
61C0
E180
6380
7700
3C00
ENDCHAR

STARTCHAR otilde
ENCODING 245
SWIDTH 640 0
DWIDTH 10 0
BBX 10 11 0 0
BITMAP
0E80
1700
0000
0F00
3B80
7180
61C0
E180
6380
7700
3C00
ENDCHAR

STARTCHAR odieresis
ENCODING 246
SWIDTH 640 0
DWIDTH 10 0
BBX 10 11 0 0
BITMAP
1980
1980
0000
0F00
3B80
7180
61C0
E180
6380
7700
3C00
ENDCHAR

STARTCHAR divide
ENCODING 247
SWIDTH 660 0
DWIDTH 11 0
BBX 8 8 2 0
BITMAP
18
18
00
FF
FF
00
18
18
ENDCHAR

STARTCHAR oslash
ENCODING 248
SWIDTH 640 0
DWIDTH 10 0
BBX 10 8 0 0
BITMAP
0F40
3B80
7380
65C0
E980
7380
7700
BC00
ENDCHAR

STARTCHAR ugrave
ENCODING 249
SWIDTH 680 0
DWIDTH 10 0
BBX 9 12 1 0
BITMAP
3800
1800
0C00
0000
3180
F180
7380
6300
6300
E700
EF80
7600
ENDCHAR

STARTCHAR uacute
ENCODING 250
SWIDTH 680 0
DWIDTH 10 0
BBX 9 12 1 0
BITMAP
0380
0300
0600
0000
3180
F180
7380
6300
6300
E700
EF80
7600
ENDCHAR

STARTCHAR ucircumflex
ENCODING 251
SWIDTH 680 0
DWIDTH 10 0
BBX 9 12 1 0
BITMAP
0400
0E00
1100
0000
3180
F180
7380
6300
6300
E700
EF80
7600
ENDCHAR

STARTCHAR udieresis
ENCODING 252
SWIDTH 680 0
DWIDTH 10 0
BBX 9 11 1 0
BITMAP
1980
1980
0000
3180
F180
7380
6300
6300
E700
EF80
7600
ENDCHAR

STARTCHAR yacute
ENCODING 253
SWIDTH 560 0
DWIDTH 9 0
BBX 9 15 -1 -3
BITMAP
0380
0300
0600
0000
1980
7B80
3980
3080
3180
3100
3B00
1E00
4600
EC00
7000
ENDCHAR

STARTCHAR thorn
ENCODING 254
SWIDTH 660 0
DWIDTH 10 0
BBX 11 15 -1 -3
BITMAP
0C00
3C00
1800
1800
1B80
3DC0
38C0
38E0
30C0
71C0
7380
6600
6000
E000
E000
ENDCHAR

STARTCHAR ydieresis
ENCODING 255
SWIDTH 560 0
DWIDTH 9 0
BBX 9 14 -1 -3
BITMAP
1980
1980
0000
1980
7B80
3980
3080
3180
3100
3B00
1E00
4600
EC00
7000
ENDCHAR
ENDFONT
